<svg width="24" height="19" viewBox="0 0 24 19" fill="none" xmlns="http://www.w3.org/2000/svg">
<path fill-rule="evenodd" clip-rule="evenodd" d="M4.90819 0C3.55985 0 2.56214 1.17548 2.60682 2.45025C2.64969 3.675 2.59399 5.26118 2.19309 6.5547C1.79077 7.8519 1.11083 8.6739 0 8.77939V9.97061C1.11083 10.0763 1.79077 10.898 2.19305 12.1953C2.59399 13.4888 2.64965 15.075 2.60677 16.2997C2.56209 17.5743 3.5598 18.75 4.90838 18.75H18.7244C20.0727 18.75 21.0702 17.5745 21.0256 16.2997C20.9827 15.075 21.0384 13.4888 21.4393 12.1953C21.8416 10.898 22.5199 10.076 23.6308 9.97061V8.77939C22.52 8.67367 21.8417 7.85205 21.4393 6.5547C21.0383 5.26136 20.9827 3.675 21.0256 2.45025C21.0702 1.17566 20.0727 0 18.7244 0H4.90819ZM16.0209 11.5419C16.0209 13.2972 14.7064 14.3617 12.5249 14.3617H8.81145C8.70525 14.3617 8.60336 14.3197 8.52825 14.2449C8.45314 14.1701 8.41095 14.0686 8.41095 13.9628V4.78725C8.41095 4.68146 8.45314 4.57999 8.52825 4.50517C8.60336 4.43036 8.70525 4.38832 8.81145 4.38832H12.5037C14.3227 4.38832 15.5165 5.3697 15.5165 6.87645C15.5165 7.93403 14.7134 8.88083 13.6904 9.04669V9.10185C15.0831 9.25399 16.0209 10.2148 16.0209 11.5419ZM12.12 5.65294H10.0026V8.63186H11.786C13.1646 8.63186 13.9247 8.07893 13.9247 7.09061C13.9246 6.16436 13.2711 5.65294 12.12 5.65294ZM10.0026 9.81383V13.0967H12.1979C13.6333 13.0967 14.3936 12.523 14.3936 11.4449C14.3936 10.3668 13.612 9.81367 12.1056 9.81367L10.0026 9.81383Z" fill="#F5F5F5"/>
</svg>
