<svg width="24" height="24" viewBox="0 0 24 24" fill="none" xmlns="http://www.w3.org/2000/svg">
<path d="M21.3231 0H2.30769C1.03339 0 0 1.04953 0 2.34375V21.6562C0 22.9505 1.03339 24 2.30769 24H21.3231C22.5974 24 23.6308 22.9505 23.6308 21.6562V2.34375C23.6308 1.04953 22.5974 0 21.3231 0ZM13.7077 13.3125H10.7538V21.8906H8.39998V13.3125H5.44614V11.3906H13.7077V13.3125ZM21.3231 20.3484C21.1384 20.7703 20.82 21.0844 20.4461 21.3328C20.0769 21.5625 19.6615 21.7406 19.1538 21.8484C18.6461 21.9563 18.1384 22.0078 17.5846 22.0078C17.0308 22.0078 16.4769 21.9609 15.9692 21.8625C15.4615 21.7641 15.0046 21.6187 14.6308 21.4219V19.1696C14.6017 19.1461 14.5717 19.1231 14.5431 19.0988L14.6308 19.0781V19.1696C15.0231 19.4859 15.4551 19.7297 15.9277 19.8956C16.3892 20.0738 16.8969 20.1628 17.4046 20.1628C17.7277 20.1628 17.9723 20.1347 18.1892 20.0831C18.4154 20.0269 18.5954 19.9519 18.7431 19.8581C18.8908 19.7644 19.0006 19.6519 19.0708 19.5206C19.141 19.3894 19.1769 19.2488 19.1769 19.0988C19.1769 18.8831 19.117 18.6956 19.0016 18.5363C18.8954 18.3769 18.7385 18.2269 18.54 18.0909C18.3554 17.955 18.1246 17.8238 17.8477 17.6972C17.5708 17.5706 17.2892 17.4394 16.9708 17.3081C16.1862 16.9331 15.5677 16.5581 15.1708 16.0425C14.7692 15.5737 14.5708 14.9644 14.5708 14.2612C14.5708 13.6987 14.677 13.2487 14.8939 12.855C15.1246 12.4331 15.397 12.1238 15.7708 11.8706C16.14 11.6128 16.5554 11.4253 17.0631 11.3081C17.5708 11.1909 18.0785 11.13 18.6323 11.13C19.1862 11.13 19.6477 11.1628 20.0631 11.2284C20.4785 11.2941 20.8662 11.3972 21.217 11.5331V13.7363C21.0554 13.6144 20.8662 13.5066 20.6631 13.4128C20.4462 13.3191 20.2339 13.2441 20.017 13.1831C19.8 13.1222 19.5831 13.0767 19.3708 13.0472C19.1677 13.0176 18.9646 13.0031 18.7708 13.0031C18.4892 13.0031 18.2492 13.0266 18.0323 13.0781C17.8108 13.1297 17.6262 13.2 17.4785 13.2938C17.3308 13.3875 17.2159 13.4953 17.1323 13.6266C17.0488 13.7578 17.0077 13.9031 17.0077 14.0625C17.0077 14.2359 17.0538 14.3906 17.1461 14.5312C17.2384 14.6672 17.3677 14.7984 17.5384 14.925C17.6908 15.0469 17.8984 15.1688 18.1384 15.2906C18.4154 15.4125 18.6646 15.5344 18.9692 15.6609C19.3846 15.8391 19.7538 16.0359 20.0769 16.2234C20.4 16.4109 20.6723 16.6313 20.9077 16.8797C21.1569 17.1141 21.3369 17.3953 21.4615 17.7234C21.5861 18.0516 21.6508 18.4219 21.6508 18.8484C21.6508 19.4578 21.5077 19.9266 21.3231 20.3484Z" fill="#F5F5F5"/>
</svg>
