<svg width="150" height="150" viewBox="0 0 150 150" fill="none" xmlns="http://www.w3.org/2000/svg">
<path fill-rule="evenodd" clip-rule="evenodd" d="M30.8136 16.4062C22.3865 16.4062 16.1508 23.753 16.4301 31.7203C16.698 39.375 16.3499 49.2886 13.8443 57.3731C11.3298 65.4806 7.08015 70.6181 0.137451 71.2774V78.7226C7.08015 79.3833 11.3298 84.5184 13.844 92.6269C16.3499 100.711 16.6977 110.625 16.4298 118.28C16.1505 126.246 22.3862 133.594 30.8148 133.594H117.165C125.592 133.594 131.826 126.247 131.547 118.28C131.279 110.625 131.627 100.711 134.133 92.6269C136.648 84.5184 140.887 79.3814 147.83 78.7226V71.2774C140.887 70.6167 136.648 65.4816 134.133 57.3731C131.627 49.2898 131.279 39.375 131.547 31.7203C131.826 23.7541 125.592 16.4062 117.165 16.4062H30.8136ZM100.268 88.5429C100.268 99.5135 92.0523 106.167 78.4182 106.167H55.209C54.5453 106.167 53.9085 105.904 53.439 105.437C52.9696 104.969 52.7059 104.335 52.7059 103.674V46.3266C52.7059 45.6654 52.9696 45.0312 53.439 44.5636C53.9085 44.096 54.5453 43.8333 55.209 43.8333H78.2858C89.6544 43.8333 97.1155 49.9669 97.1155 59.3841C97.1155 65.9939 92.0964 71.9114 85.7022 72.948V73.2928C94.4068 74.2437 100.268 80.2488 100.268 88.5429ZM75.8875 51.7371H62.6539V70.3554H73.7997C82.4162 70.3554 87.167 66.8995 87.167 60.7226C87.1663 54.9335 83.0818 51.7371 75.8875 51.7371ZM62.6539 77.7427V98.2605H76.3745C85.3457 98.2605 90.0974 94.6751 90.0974 87.9368C90.0974 81.1987 85.2123 77.7417 75.7975 77.7417L62.6539 77.7427Z" fill="white"/>
</svg>
