<svg width="129" height="150" viewBox="0 0 129 150" fill="none" xmlns="http://www.w3.org/2000/svg">
<path d="M0.512207 9.375V140.625H128.561V9.375H0.512207ZM70.1959 111.738C70.1959 124.512 62.8788 130.342 52.2176 130.342C42.5854 130.342 37.0118 125.244 34.1536 119.062L43.9573 112.998C45.8438 116.426 47.5587 119.326 51.7031 119.326C55.6475 119.326 58.1627 117.744 58.1627 111.562V69.6387H70.1959V111.738ZM98.6639 130.342C87.4882 130.342 80.2569 124.893 76.7412 117.744L86.545 111.943C89.1174 116.25 92.4901 119.443 98.4066 119.443C103.38 119.443 106.581 116.895 106.581 113.35C106.581 109.131 103.323 107.637 97.8064 105.146L94.8053 103.828C86.1162 100.049 80.3712 95.2734 80.3712 85.2246C80.3712 75.9668 87.2595 68.9355 97.9779 68.9355C105.638 68.9355 111.126 71.6602 115.07 78.8086L105.695 84.9609C103.637 81.1816 101.408 79.6875 97.9493 79.6875C94.4337 79.6875 92.2043 81.9727 92.2043 84.9609C92.2043 88.6523 94.4337 90.1465 99.6071 92.4609L102.608 93.7793C112.841 98.2617 118.586 102.861 118.586 113.174C118.586 124.248 110.068 130.342 98.6639 130.342Z" fill="white"/>
</svg>
