<svg width="129" height="150" viewBox="0 0 129 150" fill="none" xmlns="http://www.w3.org/2000/svg">
<path d="M64.6344 148.828C62.7194 148.828 60.7758 148.301 59.0894 147.305L41.4541 136.611C38.8245 135.088 40.1107 134.561 40.9682 134.268C44.4838 133.008 45.1984 132.744 48.9427 130.547C49.3428 130.313 49.8573 130.4 50.2575 130.664L63.8055 138.896C64.2914 139.189 64.9774 139.189 65.4347 138.896L118.226 107.666C118.712 107.373 119.027 106.787 119.027 106.201V43.7402C119.027 43.125 118.712 42.5684 118.198 42.2461L65.4347 11.0449C64.9488 10.752 64.2914 10.752 63.8055 11.0449L11.0711 42.2754C10.5566 42.5684 10.2422 43.1543 10.2422 43.7695V106.201C10.2422 106.787 10.5566 107.373 11.0711 107.637L25.5338 116.191C33.3939 120.205 38.1957 115.488 38.1957 110.713V49.0723C38.1957 48.1934 38.8817 47.5195 39.7392 47.5195H46.4274C47.2563 47.5195 47.9709 48.1934 47.9709 49.0723V110.742C47.9709 121.465 42.2544 127.617 32.3364 127.617C29.278 127.617 26.8771 127.617 20.1889 124.219L6.35503 116.045C2.92515 114.023 0.810059 110.244 0.810059 106.172V43.7402C0.810059 39.6973 2.92515 35.8887 6.35503 33.8672L59.0894 2.63672C62.4335 0.703125 66.8638 0.703125 70.1793 2.63672L122.971 33.8965C126.401 35.918 128.516 39.6973 128.516 43.7695V106.201C128.516 110.244 126.401 114.023 122.971 116.074L70.1793 147.305C68.493 148.301 66.578 148.828 64.6344 148.828ZM107.251 87.2754C107.251 75.5859 99.5334 72.4805 83.3272 70.2832C66.921 68.0566 65.2632 66.9141 65.2632 62.9883C65.2632 59.7363 66.6637 55.4004 78.8112 55.4004C89.6439 55.4004 93.6454 57.8027 95.3032 65.3027C95.4461 66.0059 96.0749 66.5332 96.7895 66.5332H103.649C104.078 66.5332 104.478 66.3574 104.764 66.0352C105.05 65.7129 105.193 65.2734 105.164 64.834C104.107 51.9141 95.7319 45.9082 78.8112 45.9082C63.7483 45.9082 54.7735 52.4121 54.7735 63.3398C54.7735 75.1758 63.7197 78.457 78.1538 79.9219C95.4461 81.6504 96.7895 84.2578 96.7895 87.7441C96.7895 93.7793 92.0448 96.3574 80.9263 96.3574C66.9495 96.3574 63.8912 92.7539 62.8623 85.6348C62.7479 84.873 62.1191 84.3164 61.3474 84.3164H54.5162C53.6588 84.3164 53.0014 85.0195 53.0014 85.8691C53.0014 94.9805 57.8318 105.85 80.9549 105.85C97.647 105.82 107.251 99.0527 107.251 87.2754Z" fill="white"/>
</svg>
