<svg width="140" height="140" viewBox="0 0 140 140" fill="none" xmlns="http://www.w3.org/2000/svg">
<mask id="mask0_62_36" style="mask-type:luminance" maskUnits="userSpaceOnUse" x="0" y="0" width="140" height="140">
<path d="M140 0H0V140H140V0Z" fill="white"/>
</mask>
<g mask="url(#mask0_62_36)">
<path d="M126.111 0H15.1876C7.75416 0 1.72607 6.12227 1.72607 13.6719V126.328C1.72607 133.878 7.75416 140 15.1876 140H126.111C133.544 140 139.572 133.878 139.572 126.328V13.6719C139.572 6.12227 133.544 0 126.111 0ZM81.6876 77.6562H64.4567V127.695H50.7259V77.6562H33.4952V66.4453H81.6876V77.6562ZM126.111 118.699C125.034 121.16 123.176 122.992 120.995 124.441C118.841 125.781 116.418 126.82 113.457 127.449C110.495 128.078 107.534 128.379 104.303 128.379C101.072 128.379 97.8414 128.105 94.8798 127.531C91.9183 126.957 89.2529 126.109 87.0721 124.961V111.822C86.9026 111.686 86.7276 111.552 86.5607 111.409L87.0721 111.289V111.822C89.3607 113.668 91.8807 115.09 94.6376 116.058C97.3298 117.097 100.291 117.616 103.253 117.616C105.138 117.616 106.565 117.452 107.83 117.152C109.149 116.823 110.199 116.386 111.061 115.839C111.922 115.292 112.563 114.636 112.972 113.87C113.382 113.105 113.591 112.284 113.591 111.409C113.591 110.152 113.242 109.058 112.569 108.128C111.949 107.198 111.034 106.323 109.876 105.53C108.799 104.738 107.453 103.972 105.838 103.234C104.222 102.495 102.58 101.73 100.722 100.964C96.1454 98.7766 92.5378 96.5891 90.2224 93.5812C87.88 90.8469 86.7224 87.2922 86.7224 83.1906C86.7224 79.9094 87.3416 77.2844 88.6069 74.9875C89.9531 72.5266 91.5416 70.7219 93.7224 69.2453C95.8762 67.7414 98.2993 66.6477 101.261 65.9641C104.222 65.2805 107.184 64.925 110.415 64.925C113.645 64.925 116.338 65.1164 118.761 65.4992C121.184 65.882 123.445 66.4836 125.492 67.2766V80.1281C124.549 79.4172 123.445 78.7883 122.261 78.2414C120.995 77.6945 119.757 77.257 118.492 76.9016C117.226 76.5461 115.961 76.2807 114.722 76.1086C113.538 75.9362 112.353 75.8516 111.222 75.8516C109.58 75.8516 108.18 75.9883 106.915 76.2891C105.622 76.5898 104.545 77 103.684 77.5469C102.822 78.0938 102.152 78.7227 101.665 79.4883C101.177 80.2539 100.938 81.1016 100.938 82.0312C100.938 83.043 101.207 83.9453 101.745 84.7656C102.284 85.5586 103.038 86.3242 104.034 87.0625C104.922 87.7734 106.134 88.4844 107.534 89.1953C109.149 89.9063 110.603 90.6172 112.38 91.3555C114.803 92.3945 116.957 93.543 118.841 94.6367C120.726 95.7305 122.315 97.0156 123.688 98.4648C125.141 99.832 126.191 101.473 126.918 103.387C127.645 105.301 128.022 107.461 128.022 109.949C128.022 113.504 127.188 116.238 126.111 118.699Z" fill="white"/>
</g>
</svg>
