<svg width="90" height="90" viewBox="0 0 90 90" fill="none" xmlns="http://www.w3.org/2000/svg">
<path d="M89.5 45C89.5 69.5814 69.7715 89.5 45.4455 89.5C21.1196 89.5 1.39109 69.5814 1.39109 45C1.39109 20.4186 21.1196 0.5 45.4455 0.5C69.7715 0.5 89.5 20.4186 89.5 45Z" fill="url(#paint0_linear_1_6)"/>
<path d="M89.5 45C89.5 69.5814 69.7715 89.5 45.4455 89.5C21.1196 89.5 1.39109 69.5814 1.39109 45C1.39109 20.4186 21.1196 0.5 45.4455 0.5C69.7715 0.5 89.5 20.4186 89.5 45Z" fill="white" fill-opacity="0.2"/>
<path d="M89.5 45C89.5 69.5814 69.7715 89.5 45.4455 89.5C21.1196 89.5 1.39109 69.5814 1.39109 45C1.39109 20.4186 21.1196 0.5 45.4455 0.5C69.7715 0.5 89.5 20.4186 89.5 45Z" stroke="white"/>
<path d="M30.1676 68V21.4545H45.8949C49.5313 21.4545 52.5161 22.0758 54.8494 23.3182C57.1828 24.5455 58.91 26.2348 60.0312 28.3864C61.1525 30.5379 61.7131 32.9848 61.7131 35.7273C61.7131 38.4697 61.1525 40.9015 60.0312 43.0227C58.91 45.1439 57.1903 46.8106 54.8722 48.0227C52.554 49.2197 49.5919 49.8182 45.9858 49.8182H33.2585V44.7273H45.804C48.2888 44.7273 50.2888 44.3636 51.804 43.6364C53.3343 42.9091 54.4403 41.8788 55.1222 40.5455C55.8191 39.197 56.1676 37.5909 56.1676 35.7273C56.1676 33.8636 55.8191 32.2348 55.1222 30.8409C54.4252 29.447 53.3116 28.3712 51.7812 27.6136C50.2509 26.8409 48.2282 26.4545 45.7131 26.4545H35.804V68H30.1676ZM52.0767 47.0909L63.5312 68H56.9858L45.7131 47.0909H52.0767Z" fill="#1C1C1C"/>
<defs>
<linearGradient id="paint0_linear_1_6" x1="96.2376" y1="90" x2="0.00707499" y2="0.955355" gradientUnits="userSpaceOnUse">
<stop offset="0.35175" stop-color="#8A8A8A"/>
<stop offset="0.857247" stop-opacity="0.35"/>
</linearGradient>
</defs>
</svg>
