<svg width="20" height="20" viewBox="0 0 20 20" fill="none" xmlns="http://www.w3.org/2000/svg">
<mask id="mask0_67_45" style="mask-type:luminance" maskUnits="userSpaceOnUse" x="0" y="0" width="20" height="20">
<path d="M20 0H0V20H20V0Z" fill="white"/>
</mask>
<g mask="url(#mask0_67_45)">
<path d="M18.0158 0H2.16966C1.10774 0 0.246582 0.874609 0.246582 1.95312V18.0469C0.246582 19.1254 1.10774 20 2.16966 20H18.0158C19.0778 20 19.9389 19.1254 19.9389 18.0469V1.95312C19.9389 0.874609 19.0778 0 18.0158 0ZM11.6697 11.0938H9.20809V18.2422H7.24656V11.0938H4.78503V9.49219H11.6697V11.0938ZM18.0158 16.957C17.8619 17.3086 17.5966 17.5703 17.285 17.7773C16.9773 17.9688 16.6312 18.1172 16.2081 18.207C15.785 18.2969 15.3619 18.3398 14.9004 18.3398C14.4389 18.3398 13.9773 18.3008 13.5543 18.2187C13.1312 18.1367 12.7504 18.0156 12.4389 17.8516V15.9746C12.4147 15.9551 12.3897 15.9359 12.3658 15.9156L12.4389 15.8984V15.9746C12.7658 16.2383 13.1258 16.4414 13.5197 16.5797C13.9043 16.7281 14.3273 16.8023 14.7504 16.8023C15.0197 16.8023 15.2235 16.7789 15.4042 16.7359C15.5927 16.6891 15.7427 16.6266 15.8658 16.5484C15.9889 16.4703 16.0804 16.3766 16.1389 16.2672C16.1974 16.1578 16.2273 16.0406 16.2273 15.9156C16.2273 15.7359 16.1774 15.5797 16.0812 15.4469C15.9927 15.3141 15.862 15.1891 15.6966 15.0758C15.5427 14.9625 15.3504 14.8531 15.1197 14.7477C14.8889 14.6422 14.6543 14.5328 14.3889 14.4234C13.7351 14.1109 13.2197 13.7984 12.8889 13.3687C12.5543 12.9781 12.3889 12.4703 12.3889 11.8844C12.3889 11.4156 12.4774 11.0406 12.6581 10.7125C12.8504 10.3609 13.0774 10.1031 13.3889 9.89219C13.6966 9.67734 14.0427 9.52109 14.4658 9.42344C14.8889 9.32578 15.312 9.275 15.7735 9.275C16.2351 9.275 16.6197 9.30234 16.9658 9.35703C17.312 9.41172 17.6351 9.49766 17.9274 9.61094V11.4469C17.7927 11.3453 17.6351 11.2555 17.4658 11.1773C17.2851 11.0992 17.1081 11.0367 16.9274 10.9859C16.7466 10.9352 16.5658 10.8972 16.3889 10.8727C16.2197 10.848 16.0504 10.8359 15.8889 10.8359C15.6543 10.8359 15.4543 10.8555 15.2735 10.8984C15.0889 10.9414 14.9351 11 14.812 11.0781C14.6889 11.1563 14.5931 11.2461 14.5235 11.3555C14.4539 11.4648 14.4197 11.5859 14.4197 11.7188C14.4197 11.8633 14.4581 11.9922 14.535 12.1094C14.6119 12.2227 14.7197 12.332 14.8619 12.4375C14.9889 12.5391 15.1619 12.6406 15.3619 12.7422C15.5927 12.8438 15.8004 12.9453 16.0543 13.0508C16.4004 13.1992 16.7081 13.3633 16.9773 13.5195C17.2466 13.6758 17.4735 13.8594 17.6697 14.0664C17.8773 14.2617 18.0273 14.4961 18.1312 14.7695C18.235 15.043 18.2889 15.3516 18.2889 15.707C18.2889 16.2148 18.1697 16.6055 18.0158 16.957Z" fill="#1976D2"/>
</g>
</svg>
